<svg xmlns="http://www.w3.org/2000/svg" viewBox="0 0 800 450"><rect width="800" height="450" rx="18" fill="#dbeafe"/><rect x="28" y="28" width="744" height="394" rx="14" fill="#f8fafc"/><rect x="28" y="28" width="150" height="394" rx="14" fill="#0f172a"/><circle cx="60" cy="61" r="11" fill="#2dd4bf"/><text x="80" y="66" fill="#fff" font-family="Arial" font-size="12" font-weight="700">PeopleHub</text><text x="50" y="116" fill="#94a3b8" font-family="Arial" font-size="9">WORKSPACE</text><rect x="46" y="133" width="114" height="30" rx="7" fill="#0f766e"/><text x="64" y="152" fill="#fff" font-family="Arial" font-size="9">Dashboard</text><text x="64" y="188" fill="#cbd5e1" font-family="Arial" font-size="9">Attendance</text><text x="64" y="222" fill="#cbd5e1" font-family="Arial" font-size="9">Leave requests</text><text x="64" y="256" fill="#cbd5e1" font-family="Arial" font-size="9">Employees</text><rect x="202" y="49" width="530" height="42" rx="8" fill="#fff" stroke="#e2e8f0"/><text x="224" y="75" fill="#0f172a" font-family="Arial" font-size="16" font-weight="700">Attendance overview</text><circle cx="700" cy="70" r="12" fill="#14b8a6"/><rect x="202" y="111" width="160" height="76" rx="9" fill="#ecfeff"/><text x="220" y="137" fill="#64748b" font-family="Arial" font-size="9">Present today</text><text x="220" y="168" fill="#0f766e" font-family="Arial" font-size="24" font-weight="700">184</text><rect x="380" y="111" width="160" height="76" rx="9" fill="#eff6ff"/><text x="398" y="137" fill="#64748b" font-family="Arial" font-size="9">On leave</text><text x="398" y="168" fill="#1d4ed8" font-family="Arial" font-size="24" font-weight="700">12</text><rect x="558" y="111" width="174" height="76" rx="9" fill="#f0fdf4"/><text x="576" y="137" fill="#64748b" font-family="Arial" font-size="9">Approval queue</text><text x="576" y="168" fill="#15803d" font-family="Arial" font-size="24" font-weight="700">08</text><rect x="202" y="207" width="320" height="180" rx="9" fill="#fff" stroke="#e2e8f0"/><text x="220" y="232" fill="#0f172a" font-family="Arial" font-size="11" font-weight="700">Monthly attendance</text><path d="M225 350h260M225 350V254M245 331l38-31 38 14 40-47 40 24 40-54 38 22" stroke="#14b8a6" stroke-width="4" fill="none"/><path d="M245 331l38-31 38 14 40-47 40 24 40-54 38 22v91H245z" fill="#14b8a6" opacity=".12"/><rect x="551" y="207" width="181" height="180" rx="9" fill="#fff" stroke="#e2e8f0"/><text x="569" y="232" fill="#0f172a" font-family="Arial" font-size="11" font-weight="700">Leave requests</text><rect x="569" y="252" width="145" height="32" rx="6" fill="#fef3c7"/><text x="581" y="272" fill="#92400e" font-family="Arial" font-size="9">Annual leave</text><circle cx="697" cy="268" r="7" fill="#f59e0b"/><rect x="569" y="294" width="145" height="32" rx="6" fill="#dcfce7"/><text x="581" y="314" fill="#166534" font-family="Arial" font-size="9">Approved</text><circle cx="697" cy="310" r="7" fill="#22c55e"/><rect x="569" y="336" width="145" height="32" rx="6" fill="#fee2e2"/><text x="581" y="356" fill="#991b1b" font-family="Arial" font-size="9">Needs review</text><circle cx="697" cy="352" r="7" fill="#ef4444"/></svg>
