<svg xmlns="http://www.w3.org/2000/svg" viewBox="0 0 800 450"><defs><linearGradient id="g" x2="1" y2="1"><stop stop-color="#f8fafc"/><stop offset="1" stop-color="#dbeafe"/></linearGradient></defs><rect width="800" height="450" rx="18" fill="url(#g)"/><rect x="30" y="28" width="740" height="394" rx="12" fill="#fff"/><text x="400" y="72" text-anchor="middle" fill="#0f172a" font-family="Arial" font-size="24" font-weight="800">ADD TASK</text><rect x="250" y="92" width="300" height="86" rx="9" fill="#f8fafc" stroke="#cbd5e1"/><rect x="274" y="113" width="252" height="22" rx="5" fill="#fff" stroke="#cbd5e1"/><text x="288" y="128" fill="#94a3b8" font-family="Arial" font-size="9">Task description</text><rect x="274" y="145" width="92" height="21" rx="5" fill="#198754"/><text x="294" y="159" fill="#fff" font-family="Arial" font-size="8">Add task</text><text x="400" y="218" text-anchor="middle" fill="#0f172a" font-family="Arial" font-size="22" font-weight="800">TODO LIST</text><rect x="68" y="242" width="664" height="128" rx="8" fill="#fff" stroke="#d1d5db"/><rect x="68" y="242" width="664" height="34" rx="8" fill="#f2f2f2"/><text x="94" y="264" fill="#111827" font-family="Arial" font-size="10" font-weight="700">Task</text><text x="390" y="264" fill="#111827" font-family="Arial" font-size="10" font-weight="700">Status</text><text x="510" y="264" fill="#111827" font-family="Arial" font-size="10" font-weight="700">Deadline</text><text x="638" y="264" fill="#111827" font-family="Arial" font-size="10" font-weight="700">Actions</text><path d="M68 308h664M68 342h664" stroke="#e5e7eb" stroke-width="2"/><text x="94" y="298" fill="#334155" font-family="Arial" font-size="10">Finish portfolio</text><rect x="374" y="286" width="66" height="18" rx="9" fill="#dcfce7"/><text x="389" y="298" fill="#166534" font-family="Arial" font-size="8">Pending</text><text x="510" y="298" fill="#64748b" font-family="Arial" font-size="9">Aug 30</text><text x="638" y="298" fill="#2563eb" font-family="Arial" font-size="9">Edit</text><text x="94" y="331" fill="#334155" font-family="Arial" font-size="10">Review tasks</text><rect x="374" y="319" width="66" height="18" rx="9" fill="#dbeafe"/><text x="389" y="331" fill="#1d4ed8" font-family="Arial" font-size="8">Active</text><text x="510" y="331" fill="#64748b" font-family="Arial" font-size="9">Sep 02</text><text x="638" y="331" fill="#dc2626" font-family="Arial" font-size="9">Delete</text></svg>
